# MagicaVoxel @ Ephtracy

# group
o 

# material
mtllib Enemy-0.mtl
usemtl palette

# normals
vn -1 0 0
vn 1 0 0
vn 0 0 1
vn 0 0 -1
vn 0 -1 0
vn 0 1 0

# texcoords
vt 0.861328 0.5
vt 0.943359 0.5
vt 0.951172 0.5

# verts
v 0.2 0 0.2
v 0.2 0 -0.4
v 0.2 0.1 0.1
v 0.2 0.1 -0.3
v 0.2 0.1 -0.4
v 0.2 0.1 -0.5
v 0.2 0.2 -0.1
v 0.2 0.2 -0.2
v 0.2 0.2 -0.3
v 0.2 0.2 -0.5
v 0.2 0.2 -0.6
v 0.2 0.3 -0.1
v 0.2 0.3 -0.2
v 0.2 0.3 -0.3
v 0.2 0.3 -0.6
v 0.2 0.3 -0.8
v 0.2 0.4 -0.2
v 0.2 0.4 -0.3
v 0.2 0.4 -0.5
v 0.2 0.4 -0.6
v 0.2 0.4 -0.8
v 0.2 0.4 -1.1
v 0.2 0.5 -0.6
v 0.2 0.5 -1.1
v 0.2 0.5 -1.2
v 0.2 0.6 0.1
v 0.2 0.6 7.45058e-009
v 0.2 0.6 -0.9
v 0.2 0.6 -1
v 0.2 0.6 -1.1
v 0.2 0.6 -1.2
v 0.2 0.6 -1.3
v 0.2 0.7 -0.9
v 0.2 0.7 -1
v 0.2 0.7 -1.2
v 0.2 0.7 -1.3
v 0.2 0.7 -1.5
v 0.2 0.8 0.2
v 0.2 0.8 0.1
v 0.2 0.8 7.45058e-009
v 0.2 0.8 -0.1
v 0.2 0.8 -0.5
v 0.2 0.8 -0.6
v 0.2 0.8 -1.3
v 0.2 0.8 -1.4
v 0.2 0.9 0.1
v 0.2 0.9 7.45058e-009
v 0.2 0.9 -0.1
v 0.2 0.9 -0.2
v 0.2 0.9 -0.5
v 0.2 0.9 -0.6
v 0.2 0.9 -0.7
v 0.2 0.9 -1.4
v 0.2 0.9 -1.5
v 0.2 0.9 -1.6
v 0.2 1 7.45058e-009
v 0.2 1 -0.2
v 0.2 1 -0.4
v 0.2 1 -0.6
v 0.2 1 -0.7
v 0.2 1.1 -0.2
v 0.2 1.1 -0.4
v 0.2 1.1 -0.7
v 0.2 1.2 -0.4
v 0.2 1.2 -0.6
v 0.2 1.2 -0.7
v 0.2 1.2 -0.9
v 0.2 1.2 -1.3
v 0.2 1.2 -1.4
v 0.2 1.3 -0.6
v 0.2 1.3 -0.9
v 0.2 1.3 -1.1
v 0.2 1.4 -0.9
v 0.2 1.4 -1
v 0.2 1.4 -1.1
v 0.2 1.4 -1.2
v 0.2 1.4 -1.3
v 0.2 1.4 -1.4
v 0.2 1.5 -1
v 0.2 1.5 -1.1
v 0.2 1.5 -1.2
v 0.2 1.5 -1.5
v 0.2 1.5 -1.6
v 0.2 1.6 -1.1
v 0.2 1.6 -1.5
v 0.3 0 0.2
v 0.3 0 -0.4
v 0.3 0.1 0.1
v 0.3 0.1 -0.3
v 0.3 0.1 -0.4
v 0.3 0.1 -0.5
v 0.3 0.2 -0.1
v 0.3 0.2 -0.2
v 0.3 0.2 -0.3
v 0.3 0.2 -0.5
v 0.3 0.2 -0.6
v 0.3 0.3 -0.1
v 0.3 0.3 -0.2
v 0.3 0.3 -0.3
v 0.3 0.3 -0.6
v 0.3 0.3 -0.8
v 0.3 0.4 -0.2
v 0.3 0.4 -0.3
v 0.3 0.4 -0.5
v 0.3 0.4 -0.6
v 0.3 0.4 -0.8
v 0.3 0.4 -1.1
v 0.3 0.5 -0.6
v 0.3 0.5 -1.1
v 0.3 0.5 -1.2
v 0.3 0.6 0.1
v 0.3 0.6 7.45058e-009
v 0.3 0.6 -0.9
v 0.3 0.6 -1
v 0.3 0.6 -1.1
v 0.3 0.6 -1.2
v 0.3 0.6 -1.3
v 0.3 0.7 -0.9
v 0.3 0.7 -1
v 0.3 0.7 -1.2
v 0.3 0.7 -1.3
v 0.3 0.7 -1.5
v 0.3 0.8 0.2
v 0.3 0.8 0.1
v 0.3 0.8 7.45058e-009
v 0.3 0.8 -0.1
v 0.3 0.8 -0.5
v 0.3 0.8 -0.6
v 0.3 0.8 -1.3
v 0.3 0.8 -1.4
v 0.3 0.9 0.1
v 0.3 0.9 7.45058e-009
v 0.3 0.9 -0.1
v 0.3 0.9 -0.2
v 0.3 0.9 -0.5
v 0.3 0.9 -0.6
v 0.3 0.9 -0.7
v 0.3 0.9 -1.4
v 0.3 0.9 -1.5
v 0.3 0.9 -1.6
v 0.3 1 7.45058e-009
v 0.3 1 -0.2
v 0.3 1 -0.4
v 0.3 1 -0.6
v 0.3 1 -0.7
v 0.3 1.1 -0.2
v 0.3 1.1 -0.4
v 0.3 1.1 -0.7
v 0.3 1.2 -0.4
v 0.3 1.2 -0.6
v 0.3 1.2 -0.7
v 0.3 1.2 -0.9
v 0.3 1.2 -1.3
v 0.3 1.2 -1.4
v 0.3 1.3 -0.6
v 0.3 1.3 -0.9
v 0.3 1.3 -1.1
v 0.3 1.4 -0.9
v 0.3 1.4 -1
v 0.3 1.4 -1.1
v 0.3 1.4 -1.2
v 0.3 1.4 -1.3
v 0.3 1.4 -1.4
v 0.3 1.5 -1
v 0.3 1.5 -1.1
v 0.3 1.5 -1.2
v 0.3 1.5 -1.5
v 0.3 1.5 -1.6
v 0.3 1.6 -1.1
v 0.3 1.6 -1.5
v 0.2 0 0.2
v 0.2 0.8 0.2
v 0.3 0 0.2
v 0.3 0.8 0.2
v 0.2 0.8 0.1
v 0.2 0.9 0.1
v 0.3 0.8 0.1
v 0.3 0.9 0.1
v 0.2 0.9 7.45058e-009
v 0.2 1 7.45058e-009
v 0.3 0.9 7.45058e-009
v 0.3 1 7.45058e-009
v 0.2 1 -0.2
v 0.2 1.1 -0.2
v 0.3 1 -0.2
v 0.3 1.1 -0.2
v 0.2 1.1 -0.4
v 0.2 1.2 -0.4
v 0.3 1.1 -0.4
v 0.3 1.2 -0.4
v 0.2 1.2 -0.6
v 0.2 1.3 -0.6
v 0.3 1.2 -0.6
v 0.3 1.3 -0.6
v 0.2 1.3 -0.9
v 0.2 1.4 -0.9
v 0.3 1.3 -0.9
v 0.3 1.4 -0.9
v 0.2 1.4 -1
v 0.2 1.5 -1
v 0.3 1.4 -1
v 0.3 1.5 -1
v 0.2 1.5 -1.1
v 0.2 1.6 -1.1
v 0.3 1.5 -1.1
v 0.3 1.6 -1.1
v 0.2 0 -0.4
v 0.2 0.1 -0.4
v 0.3 0 -0.4
v 0.3 0.1 -0.4
v 0.2 0.1 -0.5
v 0.2 0.2 -0.5
v 0.3 0.1 -0.5
v 0.3 0.2 -0.5
v 0.2 0.2 -0.6
v 0.2 0.3 -0.6
v 0.3 0.2 -0.6
v 0.3 0.3 -0.6
v 0.2 0.3 -0.8
v 0.2 0.4 -0.8
v 0.3 0.3 -0.8
v 0.3 0.4 -0.8
v 0.2 0.4 -1.1
v 0.2 0.5 -1.1
v 0.3 0.4 -1.1
v 0.3 0.5 -1.1
v 0.2 0.5 -1.2
v 0.2 0.6 -1.2
v 0.3 0.5 -1.2
v 0.3 0.6 -1.2
v 0.2 0.6 -1.3
v 0.2 0.7 -1.3
v 0.3 0.6 -1.3
v 0.3 0.7 -1.3
v 0.2 0.7 -1.5
v 0.2 0.9 -1.5
v 0.2 1.5 -1.5
v 0.2 1.6 -1.5
v 0.3 0.7 -1.5
v 0.3 0.9 -1.5
v 0.3 1.5 -1.5
v 0.3 1.6 -1.5
v 0.2 0.9 -1.6
v 0.2 1.5 -1.6
v 0.3 0.9 -1.6
v 0.3 1.5 -1.6
v 0.2 0 0.2
v 0.3 0 0.2
v 0.2 0 -0.4
v 0.3 0 -0.4
v 0.2 0.1 -0.4
v 0.3 0.1 -0.4
v 0.2 0.1 -0.5
v 0.3 0.1 -0.5
v 0.2 0.2 -0.5
v 0.3 0.2 -0.5
v 0.2 0.2 -0.6
v 0.3 0.2 -0.6
v 0.2 0.3 -0.6
v 0.3 0.3 -0.6
v 0.2 0.3 -0.8
v 0.3 0.3 -0.8
v 0.2 0.4 -0.8
v 0.3 0.4 -0.8
v 0.2 0.4 -1.1
v 0.3 0.4 -1.1
v 0.2 0.5 -1.1
v 0.3 0.5 -1.1
v 0.2 0.5 -1.2
v 0.3 0.5 -1.2
v 0.2 0.6 -1.2
v 0.3 0.6 -1.2
v 0.2 0.6 -1.3
v 0.3 0.6 -1.3
v 0.2 0.7 -1.3
v 0.3 0.7 -1.3
v 0.2 0.7 -1.5
v 0.3 0.7 -1.5
v 0.2 0.9 -1.5
v 0.3 0.9 -1.5
v 0.2 0.9 -1.6
v 0.3 0.9 -1.6
v 0.2 0.8 0.2
v 0.3 0.8 0.2
v 0.2 0.8 0.1
v 0.3 0.8 0.1
v 0.2 0.9 0.1
v 0.3 0.9 0.1
v 0.2 0.9 7.45058e-009
v 0.3 0.9 7.45058e-009
v 0.2 1 7.45058e-009
v 0.3 1 7.45058e-009
v 0.2 1 -0.2
v 0.3 1 -0.2
v 0.2 1.1 -0.2
v 0.3 1.1 -0.2
v 0.2 1.1 -0.4
v 0.3 1.1 -0.4
v 0.2 1.2 -0.4
v 0.3 1.2 -0.4
v 0.2 1.2 -0.6
v 0.3 1.2 -0.6
v 0.2 1.3 -0.6
v 0.3 1.3 -0.6
v 0.2 1.3 -0.9
v 0.3 1.3 -0.9
v 0.2 1.4 -0.9
v 0.3 1.4 -0.9
v 0.2 1.4 -1
v 0.3 1.4 -1
v 0.2 1.5 -1
v 0.3 1.5 -1
v 0.2 1.5 -1.1
v 0.3 1.5 -1.1
v 0.2 1.5 -1.5
v 0.3 1.5 -1.5
v 0.2 1.5 -1.6
v 0.3 1.5 -1.6
v 0.2 1.6 -1.1
v 0.3 1.6 -1.1
v 0.2 1.6 -1.5
v 0.3 1.6 -1.5

# faces
f 3/2/1 2/2/1 1/2/1
f 4/2/1 2/2/1 3/2/1
f 5/2/1 2/2/1 4/2/1
f 7/3/1 4/3/1 3/3/1
f 8/3/1 4/3/1 7/3/1
f 9/2/1 6/2/1 5/2/1
f 9/3/1 4/3/1 8/3/1
f 9/2/1 5/2/1 4/2/1
f 10/2/1 6/2/1 9/2/1
f 12/1/1 8/1/1 7/1/1
f 12/3/1 7/3/1 3/3/1
f 13/3/1 10/3/1 9/3/1
f 13/1/1 8/1/1 12/1/1
f 13/3/1 9/3/1 8/3/1
f 14/3/1 10/3/1 13/3/1
f 15/2/1 11/2/1 10/2/1
f 17/3/1 13/3/1 12/3/1
f 17/1/1 14/1/1 13/1/1
f 18/3/1 10/3/1 14/3/1
f 18/1/1 14/1/1 17/1/1
f 19/2/1 16/2/1 15/2/1
f 19/3/1 10/3/1 18/3/1
f 19/2/1 15/2/1 10/2/1
f 20/2/1 16/2/1 19/2/1
f 21/2/1 16/2/1 20/2/1
f 23/3/1 18/3/1 17/3/1
f 23/2/1 22/2/1 21/2/1
f 23/2/1 21/2/1 20/2/1
f 23/3/1 20/3/1 19/3/1
f 23/3/1 19/3/1 18/3/1
f 24/2/1 22/2/1 23/2/1
f 26/2/1 3/2/1 1/2/1
f 26/3/1 17/3/1 12/3/1
f 26/3/1 24/3/1 23/3/1
f 26/3/1 23/3/1 17/3/1
f 26/3/1 12/3/1 3/3/1
f 27/3/1 24/3/1 26/3/1
f 28/3/1 24/3/1 27/3/1
f 29/3/1 24/3/1 28/3/1
f 30/2/1 25/2/1 24/2/1
f 30/3/1 24/3/1 29/3/1
f 31/2/1 25/2/1 30/2/1
f 33/1/1 29/1/1 28/1/1
f 33/3/1 28/3/1 27/3/1
f 34/3/1 31/3/1 30/3/1
f 34/1/1 29/1/1 33/1/1
f 34/3/1 30/3/1 29/3/1
f 35/2/1 32/2/1 31/2/1
f 35/3/1 31/3/1 34/3/1
f 36/2/1 32/2/1 35/2/1
f 38/2/1 26/2/1 1/2/1
f 38/2/1 27/2/1 26/2/1
f 39/2/1 27/2/1 38/2/1
f 40/3/1 34/3/1 33/3/1
f 40/2/1 27/2/1 39/2/1
f 40/3/1 36/3/1 35/3/1
f 40/3/1 33/3/1 27/3/1
f 40/3/1 35/3/1 34/3/1
f 41/3/1 36/3/1 40/3/1
f 42/3/1 36/3/1 41/3/1
f 43/3/1 36/3/1 42/3/1
f 44/2/1 37/2/1 36/2/1
f 44/3/1 36/3/1 43/3/1
f 45/2/1 37/2/1 44/2/1
f 46/2/1 40/2/1 39/2/1
f 46/2/1 41/2/1 40/2/1
f 47/2/1 41/2/1 46/2/1
f 48/3/1 42/3/1 41/3/1
f 48/2/1 41/2/1 47/2/1
f 49/3/1 42/3/1 48/3/1
f 50/1/1 43/1/1 42/1/1
f 50/3/1 42/3/1 49/3/1
f 51/3/1 45/3/1 44/3/1
f 51/1/1 43/1/1 50/1/1
f 51/3/1 44/3/1 43/3/1
f 52/3/1 45/3/1 51/3/1
f 53/2/1 37/2/1 45/2/1
f 53/3/1 45/3/1 52/3/1
f 54/2/1 37/2/1 53/2/1
f 56/2/1 49/2/1 48/2/1
f 56/2/1 48/2/1 47/2/1
f 57/3/1 50/3/1 49/3/1
f 57/2/1 49/2/1 56/2/1
f 57/3/1 51/3/1 50/3/1
f 58/3/1 51/3/1 57/3/1
f 59/1/1 52/1/1 51/1/1
f 59/3/1 51/3/1 58/3/1
f 60/3/1 54/3/1 53/3/1
f 60/1/1 52/1/1 59/1/1
f 60/3/1 53/3/1 52/3/1
f 61/2/1 58/2/1 57/2/1
f 62/3/1 59/3/1 58/3/1
f 62/2/1 58/2/1 61/2/1
f 62/3/1 60/3/1 59/3/1
f 63/3/1 54/3/1 60/3/1
f 63/3/1 60/3/1 62/3/1
f 64/2/1 63/2/1 62/2/1
f 65/2/1 63/2/1 64/2/1
f 66/3/1 54/3/1 63/3/1
f 66/2/1 63/2/1 65/2/1
f 67/3/1 54/3/1 66/3/1
f 68/3/1 54/3/1 67/3/1
f 69/3/1 54/3/1 68/3/1
f 70/2/1 66/2/1 65/2/1
f 70/2/1 67/2/1 66/2/1
f 71/3/1 68/3/1 67/3/1
f 71/2/1 67/2/1 70/2/1
f 72/3/1 68/3/1 71/3/1
f 73/2/1 72/2/1 71/2/1
f 74/2/1 72/2/1 73/2/1
f 75/3/1 68/3/1 72/3/1
f 75/2/1 72/2/1 74/2/1
f 76/3/1 68/3/1 75/3/1
f 77/1/1 69/1/1 68/1/1
f 77/3/1 68/3/1 76/3/1
f 78/3/1 54/3/1 69/3/1
f 78/1/1 69/1/1 77/1/1
f 79/2/1 76/2/1 75/2/1
f 79/2/1 75/2/1 74/2/1
f 80/2/1 76/2/1 79/2/1
f 81/3/1 77/3/1 76/3/1
f 81/2/1 76/2/1 80/2/1
f 81/3/1 78/3/1 77/3/1
f 82/2/1 55/2/1 54/2/1
f 82/3/1 78/3/1 81/3/1
f 82/3/1 54/3/1 78/3/1
f 83/2/1 55/2/1 82/2/1
f 84/2/1 81/2/1 80/2/1
f 84/2/1 82/2/1 81/2/1
f 85/2/1 82/2/1 84/2/1
f 86/2/2 87/2/2 88/2/2
f 88/2/2 87/2/2 89/2/2
f 89/2/2 87/2/2 90/2/2
f 88/3/2 89/3/2 92/3/2
f 92/3/2 89/3/2 93/3/2
f 90/2/2 91/2/2 94/2/2
f 93/3/2 89/3/2 94/3/2
f 89/2/2 90/2/2 94/2/2
f 94/2/2 91/2/2 95/2/2
f 92/1/2 93/1/2 97/1/2
f 88/3/2 92/3/2 97/3/2
f 94/3/2 95/3/2 98/3/2
f 97/1/2 93/1/2 98/1/2
f 93/3/2 94/3/2 98/3/2
f 98/3/2 95/3/2 99/3/2
f 95/2/2 96/2/2 100/2/2
f 97/3/2 98/3/2 102/3/2
f 98/1/2 99/1/2 102/1/2
f 99/3/2 95/3/2 103/3/2
f 102/1/2 99/1/2 103/1/2
f 100/2/2 101/2/2 104/2/2
f 103/3/2 95/3/2 104/3/2
f 95/2/2 100/2/2 104/2/2
f 104/2/2 101/2/2 105/2/2
f 105/2/2 101/2/2 106/2/2
f 102/3/2 103/3/2 108/3/2
f 106/2/2 107/2/2 108/2/2
f 105/2/2 106/2/2 108/2/2
f 104/3/2 105/3/2 108/3/2
f 103/3/2 104/3/2 108/3/2
f 108/2/2 107/2/2 109/2/2
f 86/2/2 88/2/2 111/2/2
f 97/3/2 102/3/2 111/3/2
f 108/3/2 109/3/2 111/3/2
f 102/3/2 108/3/2 111/3/2
f 88/3/2 97/3/2 111/3/2
f 111/3/2 109/3/2 112/3/2
f 112/3/2 109/3/2 113/3/2
f 113/3/2 109/3/2 114/3/2
f 109/2/2 110/2/2 115/2/2
f 114/3/2 109/3/2 115/3/2
f 115/2/2 110/2/2 116/2/2
f 113/1/2 114/1/2 118/1/2
f 112/3/2 113/3/2 118/3/2
f 115/3/2 116/3/2 119/3/2
f 118/1/2 114/1/2 119/1/2
f 114/3/2 115/3/2 119/3/2
f 116/2/2 117/2/2 120/2/2
f 119/3/2 116/3/2 120/3/2
f 120/2/2 117/2/2 121/2/2
f 86/2/2 111/2/2 123/2/2
f 111/2/2 112/2/2 123/2/2
f 123/2/2 112/2/2 124/2/2
f 118/3/2 119/3/2 125/3/2
f 124/2/2 112/2/2 125/2/2
f 120/3/2 121/3/2 125/3/2
f 112/3/2 118/3/2 125/3/2
f 119/3/2 120/3/2 125/3/2
f 125/3/2 121/3/2 126/3/2
f 126/3/2 121/3/2 127/3/2
f 127/3/2 121/3/2 128/3/2
f 121/2/2 122/2/2 129/2/2
f 128/3/2 121/3/2 129/3/2
f 129/2/2 122/2/2 130/2/2
f 124/2/2 125/2/2 131/2/2
f 125/2/2 126/2/2 131/2/2
f 131/2/2 126/2/2 132/2/2
f 126/3/2 127/3/2 133/3/2
f 132/2/2 126/2/2 133/2/2
f 133/3/2 127/3/2 134/3/2
f 127/1/2 128/1/2 135/1/2
f 134/3/2 127/3/2 135/3/2
f 129/3/2 130/3/2 136/3/2
f 135/1/2 128/1/2 136/1/2
f 128/3/2 129/3/2 136/3/2
f 136/3/2 130/3/2 137/3/2
f 130/2/2 122/2/2 138/2/2
f 137/3/2 130/3/2 138/3/2
f 138/2/2 122/2/2 139/2/2
f 133/2/2 134/2/2 141/2/2
f 132/2/2 133/2/2 141/2/2
f 134/3/2 135/3/2 142/3/2
f 141/2/2 134/2/2 142/2/2
f 135/3/2 136/3/2 142/3/2
f 142/3/2 136/3/2 143/3/2
f 136/1/2 137/1/2 144/1/2
f 143/3/2 136/3/2 144/3/2
f 138/3/2 139/3/2 145/3/2
f 144/1/2 137/1/2 145/1/2
f 137/3/2 138/3/2 145/3/2
f 142/2/2 143/2/2 146/2/2
f 143/3/2 144/3/2 147/3/2
f 146/2/2 143/2/2 147/2/2
f 144/3/2 145/3/2 147/3/2
f 145/3/2 139/3/2 148/3/2
f 147/3/2 145/3/2 148/3/2
f 147/2/2 148/2/2 149/2/2
f 149/2/2 148/2/2 150/2/2
f 148/3/2 139/3/2 151/3/2
f 150/2/2 148/2/2 151/2/2
f 151/3/2 139/3/2 152/3/2
f 152/3/2 139/3/2 153/3/2
f 153/3/2 139/3/2 154/3/2
f 150/2/2 151/2/2 155/2/2
f 151/2/2 152/2/2 155/2/2
f 152/3/2 153/3/2 156/3/2
f 155/2/2 152/2/2 156/2/2
f 156/3/2 153/3/2 157/3/2
f 156/2/2 157/2/2 158/2/2
f 158/2/2 157/2/2 159/2/2
f 157/3/2 153/3/2 160/3/2
f 159/2/2 157/2/2 160/2/2
f 160/3/2 153/3/2 161/3/2
f 153/1/2 154/1/2 162/1/2
f 161/3/2 153/3/2 162/3/2
f 154/3/2 139/3/2 163/3/2
f 162/1/2 154/1/2 163/1/2
f 160/2/2 161/2/2 164/2/2
f 159/2/2 160/2/2 164/2/2
f 164/2/2 161/2/2 165/2/2
f 161/3/2 162/3/2 166/3/2
f 165/2/2 161/2/2 166/2/2
f 162/3/2 163/3/2 166/3/2
f 139/2/2 140/2/2 167/2/2
f 166/3/2 163/3/2 167/3/2
f 163/3/2 139/3/2 167/3/2
f 167/2/2 140/2/2 168/2/2
f 165/2/2 166/2/2 169/2/2
f 166/2/2 167/2/2 169/2/2
f 169/2/2 167/2/2 170/2/2
f 173/2/3 172/2/3 171/2/3
f 174/2/3 172/2/3 173/2/3
f 177/2/3 176/2/3 175/2/3
f 178/2/3 176/2/3 177/2/3
f 181/2/3 180/2/3 179/2/3
f 182/2/3 180/2/3 181/2/3
f 185/2/3 184/2/3 183/2/3
f 186/2/3 184/2/3 185/2/3
f 189/2/3 188/2/3 187/2/3
f 190/2/3 188/2/3 189/2/3
f 193/2/3 192/2/3 191/2/3
f 194/2/3 192/2/3 193/2/3
f 197/2/3 196/2/3 195/2/3
f 198/2/3 196/2/3 197/2/3
f 201/2/3 200/2/3 199/2/3
f 202/2/3 200/2/3 201/2/3
f 205/2/3 204/2/3 203/2/3
f 206/2/3 204/2/3 205/2/3
f 207/2/4 208/2/4 209/2/4
f 209/2/4 208/2/4 210/2/4
f 211/2/4 212/2/4 213/2/4
f 213/2/4 212/2/4 214/2/4
f 215/2/4 216/2/4 217/2/4
f 217/2/4 216/2/4 218/2/4
f 219/2/4 220/2/4 221/2/4
f 221/2/4 220/2/4 222/2/4
f 223/2/4 224/2/4 225/2/4
f 225/2/4 224/2/4 226/2/4
f 227/2/4 228/2/4 229/2/4
f 229/2/4 228/2/4 230/2/4
f 231/2/4 232/2/4 233/2/4
f 233/2/4 232/2/4 234/2/4
f 235/2/4 236/2/4 239/2/4
f 239/2/4 236/2/4 240/2/4
f 237/2/4 238/2/4 241/2/4
f 241/2/4 238/2/4 242/2/4
f 243/2/4 244/2/4 245/2/4
f 245/2/4 244/2/4 246/2/4
f 249/2/5 248/2/5 247/2/5
f 250/2/5 248/2/5 249/2/5
f 253/2/5 252/2/5 251/2/5
f 254/2/5 252/2/5 253/2/5
f 257/2/5 256/2/5 255/2/5
f 258/2/5 256/2/5 257/2/5
f 261/2/5 260/2/5 259/2/5
f 262/2/5 260/2/5 261/2/5
f 265/2/5 264/2/5 263/2/5
f 266/2/5 264/2/5 265/2/5
f 269/2/5 268/2/5 267/2/5
f 270/2/5 268/2/5 269/2/5
f 273/2/5 272/2/5 271/2/5
f 274/2/5 272/2/5 273/2/5
f 277/2/5 276/2/5 275/2/5
f 278/2/5 276/2/5 277/2/5
f 281/2/5 280/2/5 279/2/5
f 282/2/5 280/2/5 281/2/5
f 283/2/6 284/2/6 285/2/6
f 285/2/6 284/2/6 286/2/6
f 287/2/6 288/2/6 289/2/6
f 289/2/6 288/2/6 290/2/6
f 291/2/6 292/2/6 293/2/6
f 293/2/6 292/2/6 294/2/6
f 295/2/6 296/2/6 297/2/6
f 297/2/6 296/2/6 298/2/6
f 299/2/6 300/2/6 301/2/6
f 301/2/6 300/2/6 302/2/6
f 303/2/6 304/2/6 305/2/6
f 305/2/6 304/2/6 306/2/6
f 307/2/6 308/2/6 309/2/6
f 309/2/6 308/2/6 310/2/6
f 311/2/6 312/2/6 313/2/6
f 313/2/6 312/2/6 314/2/6
f 315/2/6 316/2/6 317/2/6
f 317/2/6 316/2/6 318/2/6
f 319/2/6 320/2/6 321/2/6
f 321/2/6 320/2/6 322/2/6
