# MagicaVoxel @ Ephtracy

# group
o 

# material
mtllib fastZombie-2.mtl
usemtl palette

# normals
vn -1 0 0
vn 1 0 0
vn 0 0 1
vn 0 0 -1
vn 0 -1 0
vn 0 1 0

# texcoords
vt 0.822266 0.5
vt 0.939453 0.5
vt 0.947266 0.5
vt 0.974609 0.5

# verts
v -0.1 1.3 0.3
v -0.1 1.3 0.1
v -0.1 1.3 0
v -0.1 1.3 -0.1
v -0.1 1.3 -0.2
v -0.1 1.4 0.3
v -0.1 1.4 0.1
v -0.1 1.4 0
v -0.1 1.4 -0.1
v -0.1 1.4 -0.2
v -0.1 1.6 0.3
v -0.1 1.6 -0.2
v -0.1 1.7 0.3
v -0.1 1.7 -0.2
v -0.1 4.9 0.2
v -0.1 4.9 -0.1
v -0.1 5 0.3
v -0.1 5 0.2
v -0.1 5 -0.1
v -0.1 5 -0.2
v -0.1 5.3 0.3
v -0.1 5.3 -0.2
v 0 1.4 0.3
v 0 1.4 0.2
v 0 1.4 0.1
v 0 1.4 0
v 0 1.4 -0.1
v 0 1.4 -0.2
v 0 1.5 0
v 0 1.5 -0.1
v 0 1.6 0.3
v 0 1.6 0.2
v 0 1.6 -0.2
v 0 1.7 0.2
v 0 1.7 -0.1
v 0 2.9 0.2
v 0 2.9 0.1
v 0 3 0.2
v 0 3 0.1
v 0 3.9 0.2
v 0 3.9 0.1
v 0 4 0.2
v 0 4 0.1
v 0 4.7 0.2
v 0 4.7 0.1
v 0 4.8 0.2
v 0 4.8 0.1
v 0 4.9 0.3
v 0 4.9 0.2
v 0 4.9 -0.1
v 0 4.9 -0.2
v 0 5 0.3
v 0 5 0.2
v 0 5 -0.1
v 0 5 -0.2
v 0.1 5.2 0.3
v 0.1 5.2 0.2
v 0.1 5.2 -0.1
v 0.1 5.2 -0.2
v 0.1 5.3 0.3
v 0.1 5.3 0.2
v 0.1 5.3 -0.1
v 0.1 5.3 -0.2
v 0.2 1.3 0.3
v 0.2 1.3 0.2
v 0.2 1.3 -0.1
v 0.2 1.3 -0.2
v 0.2 1.4 0.3
v 0.2 1.4 0.2
v 0.2 1.4 -0.1
v 0.2 1.4 -0.2
v 0.2 5.1 0.3
v 0.2 5.1 0.2
v 0.2 5.1 -0.1
v 0.2 5.1 -0.2
v 0.2 5.2 0.3
v 0.2 5.2 0.2
v 0.2 5.2 0.1
v 0.2 5.2 0
v 0.2 5.2 -0.1
v 0.2 5.2 -0.2
v 0.2 5.3 0.2
v 0.2 5.3 0.1
v 0.2 5.3 0
v 0.2 5.3 -0.1
v 0.3 1.3 0.2
v 0.3 1.3 -0.1
v 0.3 1.4 0.3
v 0.3 1.4 0.2
v 0.3 1.4 -0.1
v 0.3 1.4 -0.2
v 0.3 1.5 0.3
v 0.3 1.5 0.2
v 0.3 1.5 -0.1
v 0.3 1.5 -0.2
v 0.3 1.6 0.3
v 0.3 1.6 0.2
v 0.3 1.6 -0.1
v 0.3 1.6 -0.2
v 0.3 1.7 0.3
v 0.3 1.7 0.2
v 0.3 1.7 -0.1
v 0.3 1.7 -0.2
v 0.3 3 0.2
v 0.3 3 -0.1
v 0.3 3.4 0.2
v 0.3 3.4 -0.1
v 0.3 4.5 0.2
v 0.3 4.5 0.1
v 0.3 4.6 0.2
v 0.3 4.6 0.1
v 0.3 4.9 0.2
v 0.3 4.9 -0.1
v 0.3 5 0.3
v 0.3 5 0.2
v 0.3 5 -0.1
v 0.3 5 -0.2
v 0.3 5.1 0.3
v 0.3 5.1 0.2
v 0.3 5.1 0.1
v 0.3 5.1 0
v 0.3 5.1 -0.1
v 0.3 5.1 -0.2
v 0.3 5.2 0.2
v 0.3 5.2 0.1
v 0.3 5.2 0
v 0.3 5.2 -0.1
v 0.3 5.3 0.1
v 0.3 5.3 0
v 0.4 1.4 0.2
v 0.4 1.4 -0.1
v 0.4 1.5 0.3
v 0.4 1.5 0.2
v 0.4 1.5 -0.1
v 0.4 1.5 -0.2
v 0.4 1.6 0.3
v 0.4 1.6 0.2
v 0.4 1.6 -0.1
v 0.4 1.6 -0.2
v 0.4 1.7 0.2
v 0.4 1.7 -0.1
v 0.4 4.9 0.3
v 0.4 4.9 -0.2
v 0.4 5 0.3
v 0.4 5 0.2
v 0.4 5 -0.1
v 0.4 5 -0.2
v 0.4 5.1 0.2
v 0.4 5.1 0.1
v 0.4 5.1 0
v 0.4 5.1 -0.1
v 0.4 5.2 0.1
v 0.4 5.2 0
v -0.1 1.3 0.3
v -0.1 1.4 0.3
v -0.1 1.6 0.3
v -0.1 1.7 0.3
v -0.1 5 0.3
v -0.1 5.3 0.3
v 0 1.3 0.3
v 0 1.4 0.3
v 0 1.6 0.3
v 0 4.9 0.3
v 0 5 0.3
v 0.1 1.3 0.3
v 0.1 1.6 0.3
v 0.1 1.7 0.3
v 0.1 5.1 0.3
v 0.1 5.2 0.3
v 0.1 5.3 0.3
v 0.2 1.3 0.3
v 0.2 1.4 0.3
v 0.2 1.5 0.3
v 0.2 1.6 0.3
v 0.2 1.7 0.3
v 0.2 5.1 0.3
v 0.2 5.2 0.3
v 0.3 1.4 0.3
v 0.3 1.5 0.3
v 0.3 1.6 0.3
v 0.3 1.7 0.3
v 0.3 5 0.3
v 0.3 5.1 0.3
v 0.4 1.5 0.3
v 0.4 1.6 0.3
v 0.4 4.9 0.3
v 0.4 5 0.3
v -0.1 4.9 0.2
v -0.1 5 0.2
v 0 1.7 0.2
v 0 2.9 0.2
v 0 3 0.2
v 0 3.9 0.2
v 0 4 0.2
v 0 4.7 0.2
v 0 4.8 0.2
v 0 4.9 0.2
v 0 5 0.2
v 0.1 1.7 0.2
v 0.1 2.2 0.2
v 0.1 2.3 0.2
v 0.1 2.9 0.2
v 0.1 3 0.2
v 0.1 3.7 0.2
v 0.1 3.8 0.2
v 0.1 3.9 0.2
v 0.1 4 0.2
v 0.1 4.7 0.2
v 0.1 4.8 0.2
v 0.1 5.2 0.2
v 0.1 5.3 0.2
v 0.2 1.3 0.2
v 0.2 1.4 0.2
v 0.2 1.7 0.2
v 0.2 2.2 0.2
v 0.2 2.3 0.2
v 0.2 3 0.2
v 0.2 3.4 0.2
v 0.2 3.7 0.2
v 0.2 3.8 0.2
v 0.2 4.5 0.2
v 0.2 4.6 0.2
v 0.2 5.1 0.2
v 0.2 5.2 0.2
v 0.2 5.3 0.2
v 0.3 1.3 0.2
v 0.3 1.4 0.2
v 0.3 1.5 0.2
v 0.3 1.6 0.2
v 0.3 1.7 0.2
v 0.3 3 0.2
v 0.3 3.4 0.2
v 0.3 4.5 0.2
v 0.3 4.6 0.2
v 0.3 4.9 0.2
v 0.3 5 0.2
v 0.3 5.1 0.2
v 0.3 5.2 0.2
v 0.4 1.4 0.2
v 0.4 1.5 0.2
v 0.4 1.6 0.2
v 0.4 1.7 0.2
v 0.4 5 0.2
v 0.4 5.1 0.2
v 0.2 5.2 0.1
v 0.2 5.3 0.1
v 0.3 5.1 0.1
v 0.3 5.2 0.1
v 0.3 5.3 0.1
v 0.4 5.1 0.1
v 0.4 5.2 0.1
v 0.2 5.2 0
v 0.2 5.3 0
v 0.3 5.1 0
v 0.3 5.2 0
v 0.3 5.3 0
v 0.4 5.1 0
v 0.4 5.2 0
v -0.1 4.9 -0.1
v -0.1 5 -0.1
v 0 1.7 -0.1
v 0 4.9 -0.1
v 0 5 -0.1
v 0.1 5.2 -0.1
v 0.1 5.3 -0.1
v 0.2 1.3 -0.1
v 0.2 1.4 -0.1
v 0.2 3 -0.1
v 0.2 3.4 -0.1
v 0.2 5.1 -0.1
v 0.2 5.2 -0.1
v 0.2 5.3 -0.1
v 0.3 1.3 -0.1
v 0.3 1.4 -0.1
v 0.3 1.5 -0.1
v 0.3 1.6 -0.1
v 0.3 1.7 -0.1
v 0.3 3 -0.1
v 0.3 3.4 -0.1
v 0.3 4.9 -0.1
v 0.3 5 -0.1
v 0.3 5.1 -0.1
v 0.3 5.2 -0.1
v 0.4 1.4 -0.1
v 0.4 1.5 -0.1
v 0.4 1.6 -0.1
v 0.4 1.7 -0.1
v 0.4 5 -0.1
v 0.4 5.1 -0.1
v -0.1 1.3 -0.2
v -0.1 1.4 -0.2
v -0.1 1.6 -0.2
v -0.1 1.7 -0.2
v -0.1 5 -0.2
v -0.1 5.3 -0.2
v 0 1.3 -0.2
v 0 1.4 -0.2
v 0 1.6 -0.2
v 0 4.9 -0.2
v 0 5 -0.2
v 0.1 5.2 -0.2
v 0.1 5.3 -0.2
v 0.2 1.3 -0.2
v 0.2 1.4 -0.2
v 0.2 5.1 -0.2
v 0.2 5.2 -0.2
v 0.3 1.4 -0.2
v 0.3 1.5 -0.2
v 0.3 1.6 -0.2
v 0.3 1.7 -0.2
v 0.3 5 -0.2
v 0.3 5.1 -0.2
v 0.4 1.5 -0.2
v 0.4 1.6 -0.2
v 0.4 4.9 -0.2
v 0.4 5 -0.2
v -0.1 1.3 0.3
v 0 1.3 0.3
v 0.1 1.3 0.3
v 0.2 1.3 0.3
v 0 1.3 0.2
v 0.1 1.3 0.2
v 0.2 1.3 0.2
v 0.3 1.3 0.2
v -0.1 1.3 0.1
v 0 1.3 0.1
v -0.1 1.3 0
v 0 1.3 0
v -0.1 1.3 -0.1
v 0 1.3 -0.1
v 0.2 1.3 -0.1
v 0.3 1.3 -0.1
v -0.1 1.3 -0.2
v 0 1.3 -0.2
v 0.2 1.3 -0.2
v 0.2 1.4 0.3
v 0.3 1.4 0.3
v 0.2 1.4 0.2
v 0.3 1.4 0.2
v 0.4 1.4 0.2
v 0.2 1.4 -0.1
v 0.3 1.4 -0.1
v 0.4 1.4 -0.1
v 0.2 1.4 -0.2
v 0.3 1.4 -0.2
v 0.3 1.5 0.3
v 0.4 1.5 0.3
v 0.3 1.5 0.2
v 0.4 1.5 0.2
v 0.3 1.5 -0.1
v 0.4 1.5 -0.1
v 0.3 1.5 -0.2
v 0.4 1.5 -0.2
v -0.1 1.6 0.3
v 0 1.6 0.3
v 0 1.6 0.2
v -0.1 1.6 -0.2
v 0 1.6 -0.2
v 0 4.9 0.3
v 0.4 4.9 0.3
v -0.1 4.9 0.2
v 0 4.9 0.2
v 0.3 4.9 0.2
v -0.1 4.9 -0.1
v 0 4.9 -0.1
v 0.3 4.9 -0.1
v 0 4.9 -0.2
v 0.4 4.9 -0.2
v -0.1 5 0.3
v 0 5 0.3
v -0.1 5 0.2
v 0 5 0.2
v -0.1 5 -0.1
v 0 5 -0.1
v -0.1 5 -0.2
v 0 5 -0.2
v -0.1 1.4 0.3
v 0 1.4 0.3
v 0 1.4 0.2
v -0.1 1.4 0.1
v 0 1.4 0.1
v -0.1 1.4 0
v 0 1.4 0
v -0.1 1.4 -0.1
v 0 1.4 -0.1
v -0.1 1.4 -0.2
v 0 1.4 -0.2
v 0.3 1.6 0.3
v 0.4 1.6 0.3
v 0.3 1.6 0.2
v 0.4 1.6 0.2
v 0.3 1.6 -0.1
v 0.4 1.6 -0.1
v 0.3 1.6 -0.2
v 0.4 1.6 -0.2
v -0.1 1.7 0.3
v 0.1 1.7 0.3
v 0.2 1.7 0.3
v 0.3 1.7 0.3
v 0 1.7 0.2
v 0.1 1.7 0.2
v 0.2 1.7 0.2
v 0.3 1.7 0.2
v 0.4 1.7 0.2
v 0 1.7 -0.1
v 0.3 1.7 -0.1
v 0.4 1.7 -0.1
v -0.1 1.7 -0.2
v 0.3 1.7 -0.2
v 0.3 5 0.3
v 0.4 5 0.3
v 0.3 5 0.2
v 0.4 5 0.2
v 0.3 5 -0.1
v 0.4 5 -0.1
v 0.3 5 -0.2
v 0.4 5 -0.2
v 0.2 5.1 0.3
v 0.3 5.1 0.3
v 0.2 5.1 0.2
v 0.3 5.1 0.2
v 0.4 5.1 0.2
v 0.3 5.1 0.1
v 0.4 5.1 0.1
v 0.3 5.1 0
v 0.4 5.1 0
v 0.2 5.1 -0.1
v 0.3 5.1 -0.1
v 0.4 5.1 -0.1
v 0.2 5.1 -0.2
v 0.3 5.1 -0.2
v 0.1 5.2 0.3
v 0.2 5.2 0.3
v 0.1 5.2 0.2
v 0.2 5.2 0.2
v 0.3 5.2 0.2
v 0.2 5.2 0.1
v 0.3 5.2 0.1
v 0.4 5.2 0.1
v 0.2 5.2 0
v 0.3 5.2 0
v 0.4 5.2 0
v 0.1 5.2 -0.1
v 0.2 5.2 -0.1
v 0.3 5.2 -0.1
v 0.1 5.2 -0.2
v 0.2 5.2 -0.2
v -0.1 5.3 0.3
v 0.1 5.3 0.3
v 0.1 5.3 0.2
v 0.2 5.3 0.2
v 0.2 5.3 0.1
v 0.3 5.3 0.1
v 0.2 5.3 0
v 0.3 5.3 0
v 0.1 5.3 -0.1
v 0.2 5.3 -0.1
v -0.1 5.3 -0.2
v 0.1 5.3 -0.2

# faces
f 6/4/1 2/4/1 1/4/1
f 7/1/1 3/1/1 2/1/1
f 7/4/1 2/4/1 6/4/1
f 8/4/1 4/4/1 3/4/1
f 8/1/1 3/1/1 7/1/1
f 9/1/1 5/1/1 4/1/1
f 9/4/1 4/4/1 8/4/1
f 10/1/1 5/1/1 9/1/1
f 13/4/1 12/4/1 11/4/1
f 14/4/1 12/4/1 13/4/1
f 18/3/1 16/3/1 15/3/1
f 19/3/1 16/3/1 18/3/1
f 21/3/1 18/3/1 17/3/1
f 21/3/1 20/3/1 19/3/1
f 21/3/1 19/3/1 18/3/1
f 22/3/1 20/3/1 21/3/1
f 29/4/1 25/4/1 24/4/1
f 29/4/1 26/4/1 25/4/1
f 29/1/1 27/1/1 26/1/1
f 30/4/1 28/4/1 27/4/1
f 30/1/1 27/1/1 29/1/1
f 31/1/1 24/1/1 23/1/1
f 32/4/1 29/4/1 24/4/1
f 32/1/1 24/1/1 31/1/1
f 32/4/1 30/4/1 29/4/1
f 33/4/1 28/4/1 30/4/1
f 33/4/1 30/4/1 32/4/1
f 36/4/1 35/4/1 34/4/1
f 37/4/1 35/4/1 36/4/1
f 38/2/1 37/2/1 36/2/1
f 39/4/1 35/4/1 37/4/1
f 39/2/1 37/2/1 38/2/1
f 40/4/1 39/4/1 38/4/1
f 41/4/1 35/4/1 39/4/1
f 41/4/1 39/4/1 40/4/1
f 42/2/1 41/2/1 40/2/1
f 43/4/1 35/4/1 41/4/1
f 43/2/1 41/2/1 42/2/1
f 44/4/1 43/4/1 42/4/1
f 45/4/1 35/4/1 43/4/1
f 45/4/1 43/4/1 44/4/1
f 46/2/1 45/2/1 44/2/1
f 47/4/1 35/4/1 45/4/1
f 47/2/1 45/2/1 46/2/1
f 49/4/1 47/4/1 46/4/1
f 50/4/1 35/4/1 47/4/1
f 50/4/1 47/4/1 49/4/1
f 52/3/1 49/3/1 48/3/1
f 53/3/1 49/3/1 52/3/1
f 54/3/1 51/3/1 50/3/1
f 55/3/1 51/3/1 54/3/1
f 56/3/2 57/3/2 60/3/2
f 60/3/2 57/3/2 61/3/2
f 58/3/2 59/3/2 62/3/2
f 62/3/2 59/3/2 63/3/2
f 64/4/2 65/4/2 68/4/2
f 68/4/2 65/4/2 69/4/2
f 66/4/2 67/4/2 70/4/2
f 70/4/2 67/4/2 71/4/2
f 72/1/2 73/1/2 76/1/2
f 76/1/2 73/1/2 77/1/2
f 74/3/2 75/3/2 80/3/2
f 80/3/2 75/3/2 81/3/2
f 77/3/2 78/3/2 82/3/2
f 82/3/2 78/3/2 83/3/2
f 79/3/2 80/3/2 84/3/2
f 84/3/2 80/3/2 85/3/2
f 86/4/2 87/4/2 89/4/2
f 89/4/2 87/4/2 90/4/2
f 88/1/2 89/1/2 92/1/2
f 92/1/2 89/1/2 93/1/2
f 90/4/2 91/4/2 94/4/2
f 94/4/2 91/4/2 95/4/2
f 96/4/2 97/4/2 100/4/2
f 100/4/2 97/4/2 101/4/2
f 98/4/2 99/4/2 102/4/2
f 102/4/2 99/4/2 103/4/2
f 101/4/2 102/4/2 104/4/2
f 104/4/2 102/4/2 105/4/2
f 104/2/2 105/2/2 106/2/2
f 106/2/2 105/2/2 107/2/2
f 106/4/2 107/4/2 108/4/2
f 108/4/2 107/4/2 109/4/2
f 108/2/2 109/2/2 110/2/2
f 109/4/2 107/4/2 111/4/2
f 110/2/2 109/2/2 111/2/2
f 110/4/2 111/4/2 112/4/2
f 111/4/2 107/4/2 113/4/2
f 112/4/2 111/4/2 113/4/2
f 114/3/2 115/3/2 118/3/2
f 118/3/2 115/3/2 119/3/2
f 116/3/2 117/3/2 122/3/2
f 122/3/2 117/3/2 123/3/2
f 119/3/2 120/3/2 124/3/2
f 124/3/2 120/3/2 125/3/2
f 121/3/2 122/3/2 126/3/2
f 126/3/2 122/3/2 127/3/2
f 125/3/2 126/3/2 128/3/2
f 128/3/2 126/3/2 129/3/2
f 130/4/2 131/4/2 133/4/2
f 133/4/2 131/4/2 134/4/2
f 132/4/2 133/4/2 136/4/2
f 134/4/2 135/4/2 136/4/2
f 133/4/2 134/4/2 136/4/2
f 136/4/2 135/4/2 137/4/2
f 137/4/2 135/4/2 138/4/2
f 138/4/2 135/4/2 139/4/2
f 137/4/2 138/4/2 140/4/2
f 140/4/2 138/4/2 141/4/2
f 142/3/2 143/3/2 144/3/2
f 144/3/2 143/3/2 145/3/2
f 145/3/2 143/3/2 146/3/2
f 146/3/2 143/3/2 147/3/2
f 145/3/2 146/3/2 148/3/2
f 148/3/2 146/3/2 149/3/2
f 149/3/2 146/3/2 150/3/2
f 150/3/2 146/3/2 151/3/2
f 149/3/2 150/3/2 152/3/2
f 152/3/2 150/3/2 153/3/2
f 160/4/3 155/4/3 154/4/3
f 161/4/3 155/4/3 160/4/3
f 162/4/3 157/4/3 156/4/3
f 164/3/3 159/3/3 158/3/3
f 165/1/3 162/1/3 161/1/3
f 165/1/3 161/1/3 160/1/3
f 166/4/3 157/4/3 162/4/3
f 166/1/3 162/1/3 165/1/3
f 167/4/3 157/4/3 166/4/3
f 168/3/3 164/3/3 163/3/3
f 168/3/3 159/3/3 164/3/3
f 169/3/3 159/3/3 168/3/3
f 170/3/3 159/3/3 169/3/3
f 171/4/3 166/4/3 165/4/3
f 172/4/3 166/4/3 171/4/3
f 173/4/3 166/4/3 172/4/3
f 174/2/3 167/2/3 166/2/3
f 174/4/3 166/4/3 173/4/3
f 175/2/3 167/2/3 174/2/3
f 176/3/3 168/3/3 163/3/3
f 176/1/3 169/1/3 168/1/3
f 177/1/3 169/1/3 176/1/3
f 178/1/3 173/1/3 172/1/3
f 179/4/3 175/4/3 174/4/3
f 179/1/3 173/1/3 178/1/3
f 179/4/3 174/4/3 173/4/3
f 180/4/3 175/4/3 179/4/3
f 181/4/3 175/4/3 180/4/3
f 182/3/3 176/3/3 163/3/3
f 183/3/3 176/3/3 182/3/3
f 184/4/3 180/4/3 179/4/3
f 185/4/3 180/4/3 184/4/3
f 186/3/3 182/3/3 163/3/3
f 187/3/3 182/3/3 186/3/3
f 197/3/3 189/3/3 188/3/3
f 198/3/3 189/3/3 197/3/3
f 199/4/3 191/4/3 190/4/3
f 200/4/3 191/4/3 199/4/3
f 201/4/3 191/4/3 200/4/3
f 202/2/3 192/2/3 191/2/3
f 202/4/3 191/4/3 201/4/3
f 203/4/3 193/4/3 192/4/3
f 203/2/3 192/2/3 202/2/3
f 204/4/3 193/4/3 203/4/3
f 205/4/3 193/4/3 204/4/3
f 206/2/3 194/2/3 193/2/3
f 206/4/3 193/4/3 205/4/3
f 207/4/3 195/4/3 194/4/3
f 207/2/3 194/2/3 206/2/3
f 208/2/3 196/2/3 195/2/3
f 208/4/3 195/4/3 207/4/3
f 209/4/3 197/4/3 196/4/3
f 209/2/3 196/2/3 208/2/3
f 214/4/3 200/4/3 199/4/3
f 215/2/3 201/2/3 200/2/3
f 215/4/3 200/4/3 214/4/3
f 216/4/3 202/4/3 201/4/3
f 216/2/3 201/2/3 215/2/3
f 216/4/3 203/4/3 202/4/3
f 216/4/3 204/4/3 203/4/3
f 217/4/3 204/4/3 216/4/3
f 218/4/3 204/4/3 217/4/3
f 219/2/3 205/2/3 204/2/3
f 219/4/3 204/4/3 218/4/3
f 220/4/3 207/4/3 206/4/3
f 220/2/3 205/2/3 219/2/3
f 220/4/3 206/4/3 205/4/3
f 220/4/3 208/4/3 207/4/3
f 220/4/3 209/4/3 208/4/3
f 221/4/3 209/4/3 220/4/3
f 222/4/3 209/4/3 221/4/3
f 224/3/3 211/3/3 210/3/3
f 225/3/3 211/3/3 224/3/3
f 226/4/3 213/4/3 212/4/3
f 227/4/3 213/4/3 226/4/3
f 230/4/3 215/4/3 214/4/3
f 230/4/3 217/4/3 216/4/3
f 230/4/3 216/4/3 215/4/3
f 231/2/3 218/2/3 217/2/3
f 231/4/3 217/4/3 230/4/3
f 232/4/3 219/4/3 218/4/3
f 232/2/3 218/2/3 231/2/3
f 232/4/3 220/4/3 219/4/3
f 232/4/3 221/4/3 220/4/3
f 233/2/3 222/2/3 221/2/3
f 233/4/3 221/4/3 232/4/3
f 234/4/3 209/4/3 222/4/3
f 234/2/3 222/2/3 233/2/3
f 235/4/3 197/4/3 209/4/3
f 235/4/3 209/4/3 234/4/3
f 237/3/3 224/3/3 223/3/3
f 238/3/3 224/3/3 237/3/3
f 239/4/3 228/4/3 227/4/3
f 240/4/3 228/4/3 239/4/3
f 241/4/3 230/4/3 229/4/3
f 242/4/3 230/4/3 241/4/3
f 243/3/3 237/3/3 236/3/3
f 244/3/3 237/3/3 243/3/3
f 248/3/3 246/3/3 245/3/3
f 249/3/3 246/3/3 248/3/3
f 250/3/3 248/3/3 247/3/3
f 251/3/3 248/3/3 250/3/3
f 252/3/4 253/3/4 255/3/4
f 255/3/4 253/3/4 256/3/4
f 254/3/4 255/3/4 257/3/4
f 257/3/4 255/3/4 258/3/4
f 259/3/4 260/3/4 262/3/4
f 262/3/4 260/3/4 263/3/4
f 261/4/4 262/4/4 268/4/4
f 268/4/4 262/4/4 269/4/4
f 264/3/4 265/3/4 271/3/4
f 271/3/4 265/3/4 272/3/4
f 266/4/4 267/4/4 273/4/4
f 273/4/4 267/4/4 274/4/4
f 261/4/4 268/4/4 277/4/4
f 268/2/4 269/2/4 278/2/4
f 277/4/4 268/4/4 278/4/4
f 269/4/4 262/4/4 279/4/4
f 278/2/4 269/2/4 279/2/4
f 279/4/4 262/4/4 280/4/4
f 270/3/4 271/3/4 282/3/4
f 282/3/4 271/3/4 283/3/4
f 274/4/4 275/4/4 284/4/4
f 284/4/4 275/4/4 285/4/4
f 276/4/4 277/4/4 286/4/4
f 286/4/4 277/4/4 287/4/4
f 281/3/4 282/3/4 288/3/4
f 288/3/4 282/3/4 289/3/4
f 290/1/4 291/1/4 296/1/4
f 296/1/4 291/1/4 297/1/4
f 292/4/4 293/4/4 298/4/4
f 294/3/4 295/3/4 300/3/4
f 300/3/4 295/3/4 301/3/4
f 299/3/4 300/3/4 301/3/4
f 301/3/4 295/3/4 302/3/4
f 297/4/4 298/4/4 303/4/4
f 296/4/4 297/4/4 303/4/4
f 303/4/4 298/4/4 304/4/4
f 299/3/4 301/3/4 305/3/4
f 305/3/4 301/3/4 306/3/4
f 304/4/4 298/4/4 307/4/4
f 307/4/4 298/4/4 308/4/4
f 298/4/4 293/4/4 309/4/4
f 308/4/4 298/4/4 309/4/4
f 309/4/4 293/4/4 310/4/4
f 299/3/4 305/3/4 311/3/4
f 311/3/4 305/3/4 312/3/4
f 308/4/4 309/4/4 313/4/4
f 313/4/4 309/4/4 314/4/4
f 299/3/4 311/3/4 315/3/4
f 315/3/4 311/3/4 316/3/4
f 321/4/5 318/4/5 317/4/5
f 321/1/5 319/1/5 318/1/5
f 322/4/5 320/4/5 319/4/5
f 322/1/5 319/1/5 321/1/5
f 323/4/5 320/4/5 322/4/5
f 325/4/5 321/4/5 317/4/5
f 325/4/5 324/4/5 323/4/5
f 325/4/5 323/4/5 322/4/5
f 325/4/5 322/4/5 321/4/5
f 326/4/5 324/4/5 325/4/5
f 327/1/5 326/1/5 325/1/5
f 328/4/5 324/4/5 326/4/5
f 328/1/5 326/1/5 327/1/5
f 329/4/5 328/4/5 327/4/5
f 330/4/5 324/4/5 328/4/5
f 330/4/5 328/4/5 329/4/5
f 331/4/5 324/4/5 330/4/5
f 332/4/5 324/4/5 331/4/5
f 333/1/5 330/1/5 329/1/5
f 334/4/5 331/4/5 330/4/5
f 334/1/5 330/1/5 333/1/5
f 335/4/5 331/4/5 334/4/5
f 338/1/5 337/1/5 336/1/5
f 339/1/5 337/1/5 338/1/5
f 342/4/5 340/4/5 339/4/5
f 343/4/5 340/4/5 342/4/5
f 344/4/5 342/4/5 341/4/5
f 345/4/5 342/4/5 344/4/5
f 348/4/5 347/4/5 346/4/5
f 349/4/5 347/4/5 348/4/5
f 352/4/5 351/4/5 350/4/5
f 353/4/5 351/4/5 352/4/5
f 356/4/5 355/4/5 354/4/5
f 357/4/5 356/4/5 354/4/5
f 358/4/5 356/4/5 357/4/5
f 362/3/5 360/3/5 359/3/5
f 363/3/5 360/3/5 362/3/5
f 364/3/5 362/3/5 361/3/5
f 365/3/5 362/3/5 364/3/5
f 366/3/5 360/3/5 363/3/5
f 367/3/5 366/3/5 365/3/5
f 368/3/5 360/3/5 366/3/5
f 368/3/5 366/3/5 367/3/5
f 371/3/5 370/3/5 369/3/5
f 372/3/5 370/3/5 371/3/5
f 375/3/5 374/3/5 373/3/5
f 376/3/5 374/3/5 375/3/5
f 377/4/6 378/4/6 379/4/6
f 377/4/6 379/4/6 380/4/6
f 380/4/6 379/4/6 381/4/6
f 380/1/6 381/1/6 382/1/6
f 382/1/6 381/1/6 383/1/6
f 382/4/6 383/4/6 384/4/6
f 384/4/6 383/4/6 385/4/6
f 384/1/6 385/1/6 386/1/6
f 386/1/6 385/1/6 387/1/6
f 388/4/6 389/4/6 390/4/6
f 390/4/6 389/4/6 391/4/6
f 392/4/6 393/4/6 394/4/6
f 394/4/6 393/4/6 395/4/6
f 396/4/6 397/4/6 400/4/6
f 397/2/6 398/2/6 401/2/6
f 400/4/6 397/4/6 401/4/6
f 398/4/6 399/4/6 402/4/6
f 401/2/6 398/2/6 402/2/6
f 402/4/6 399/4/6 403/4/6
f 396/4/6 400/4/6 405/4/6
f 403/4/6 404/4/6 406/4/6
f 406/4/6 404/4/6 407/4/6
f 396/4/6 405/4/6 408/4/6
f 405/4/6 406/4/6 408/4/6
f 408/4/6 406/4/6 409/4/6
f 410/3/6 411/3/6 412/3/6
f 412/3/6 411/3/6 413/3/6
f 414/3/6 415/3/6 416/3/6
f 416/3/6 415/3/6 417/3/6
f 418/3/6 419/3/6 420/3/6
f 420/3/6 419/3/6 421/3/6
f 421/3/6 422/3/6 423/3/6
f 423/3/6 422/3/6 424/3/6
f 425/3/6 426/3/6 428/3/6
f 428/3/6 426/3/6 429/3/6
f 427/3/6 428/3/6 430/3/6
f 430/3/6 428/3/6 431/3/6
f 432/1/6 433/1/6 434/1/6
f 434/1/6 433/1/6 435/1/6
f 435/3/6 436/3/6 437/3/6
f 437/3/6 436/3/6 438/3/6
f 438/3/6 439/3/6 441/3/6
f 441/3/6 439/3/6 442/3/6
f 440/3/6 441/3/6 444/3/6
f 444/3/6 441/3/6 445/3/6
f 443/3/6 444/3/6 446/3/6
f 446/3/6 444/3/6 447/3/6
f 448/3/6 449/3/6 450/3/6
f 450/3/6 451/3/6 452/3/6
f 450/3/6 452/3/6 454/3/6
f 452/3/6 453/3/6 454/3/6
f 454/3/6 453/3/6 455/3/6
f 448/3/6 450/3/6 456/3/6
f 450/3/6 454/3/6 456/3/6
f 456/3/6 454/3/6 457/3/6
f 448/3/6 456/3/6 458/3/6
f 458/3/6 456/3/6 459/3/6
