# MagicaVoxel @ Ephtracy

# group
o 

# material
mtllib fastZombie-1.mtl
usemtl palette

# normals
vn -1 0 0
vn 1 0 0
vn 0 0 1
vn 0 0 -1
vn 0 -1 0
vn 0 1 0

# texcoords
vt 0.705078 0.5
vt 0.931641 0.5
vt 0.935547 0.5
vt 0.939453 0.5
vt 0.966797 0.5
vt 0.974609 0.5

# verts
v -0.1 0 0.3
v -0.1 0 0.1
v -0.1 0 -0.1
v -0.1 0.1 0.3
v -0.1 0.1 0.2
v -0.1 0.1 0.1
v -0.1 0.1 1.49012e-008
v -0.1 0.2 0.2
v -0.1 0.2 0.1
v -0.1 0.2 1.49012e-008
v -0.1 0.2 -0.1
v -1.49012e-008 0 0.4
v -1.49012e-008 0 0.3
v -1.49012e-008 0 -0.1
v -1.49012e-008 0 -0.2
v -1.49012e-008 0.1 0.4
v -1.49012e-008 0.1 0.3
v -1.49012e-008 0.1 0.1
v -1.49012e-008 0.1 1.49012e-008
v -1.49012e-008 0.1 -0.1
v -1.49012e-008 0.1 -0.2
v -1.49012e-008 0.2 0.2
v -1.49012e-008 0.2 0.1
v -1.49012e-008 0.2 1.49012e-008
v -1.49012e-008 0.2 -0.1
v -1.49012e-008 0.3 0.2
v -1.49012e-008 0.3 -0.1
v -1.49012e-008 0.9 0.2
v -1.49012e-008 0.9 0.1
v -1.49012e-008 1 0.2
v -1.49012e-008 1 0.1
v -1.49012e-008 1 -0.1
v -1.49012e-008 1.5 0.2
v -1.49012e-008 1.5 0.1
v -1.49012e-008 1.5 1.49012e-008
v -1.49012e-008 1.6 0.2
v -1.49012e-008 1.6 0.1
v -1.49012e-008 1.7 0.2
v -1.49012e-008 1.7 1.49012e-008
v -1.49012e-008 3 0.2
v -1.49012e-008 3 1.49012e-008
v -1.49012e-008 3.6 0.2
v -1.49012e-008 3.6 1.49012e-008
v -1.49012e-008 4.2 0.2
v -1.49012e-008 4.2 0.1
v -1.49012e-008 4.3 0.2
v -1.49012e-008 4.3 0.1
v -1.49012e-008 6.6 0.2
v -1.49012e-008 6.6 -0.1
v 0.1 0 0.5
v 0.1 0 0.4
v 0.1 0 -0.2
v 0.1 0 -0.3
v 0.1 0.1 0.5
v 0.1 0.1 0.4
v 0.1 0.1 0.3
v 0.1 0.1 0.2
v 0.1 0.1 -0.1
v 0.1 0.1 -0.2
v 0.1 0.1 -0.3
v 0.1 0.2 0.3
v 0.1 0.2 0.2
v 0.1 0.2 -0.1
v 0.1 0.2 -0.2
v 0.1 1.5 0.2
v 0.1 1.5 0.1
v 0.1 1.6 0.2
v 0.1 1.6 0.1
v 0.2 2.1 0.2
v 0.2 2.1 0.1
v 0.2 2.2 0.2
v 0.2 2.2 0.1
v 0.1 2.1 0.2
v 0.1 2.1 0.1
v 0.1 2.2 0.2
v 0.1 2.2 0.1
v 0.1 5.4 0.2
v 0.1 5.4 -0.1
v 0.1 5.5 0.2
v 0.1 5.5 -0.1
v 0.2 0 0.5
v 0.2 0 0.4
v 0.2 0 -0.2
v 0.2 0 -0.3
v 0.2 0.1 0.5
v 0.2 0.1 0.4
v 0.2 0.1 0.3
v 0.2 0.1 0.2
v 0.2 0.1 -0.1
v 0.2 0.1 -0.2
v 0.2 0.1 -0.3
v 0.2 0.2 0.3
v 0.2 0.2 0.2
v 0.2 0.2 -0.1
v 0.2 0.2 -0.2
v 0.2 5.3 0.2
v 0.2 5.3 -0.1
v 0.2 5.4 0.2
v 0.2 5.4 -0.1
v 0.3 0 0.4
v 0.3 0 0.3
v 0.3 0 -0.1
v 0.3 0 -0.2
v 0.3 0.1 0.4
v 0.3 0.1 0.3
v 0.3 0.1 1.49012e-008
v 0.3 0.1 -0.1
v 0.3 0.1 -0.2
v 0.3 0.2 0.2
v 0.3 0.2 1.49012e-008
v 0.3 0.3 0.2
v 0.3 0.3 1.49012e-008
v 0.3 1 0.2
v 0.3 1 1.49012e-008
v 0.3 1.7 1.49012e-008
v 0.3 1.7 -0.1
v 0.3 3 0.2
v 0.3 3 1.49012e-008
v 0.3 3.3 0.2
v 0.3 3.3 0.1
v 0.3 3.5 0.2
v 0.3 3.5 0.1
v 0.3 3.6 0.2
v 0.3 3.6 1.49012e-008
v 0.3 4.8 1.49012e-008
v 0.3 4.8 -0.1
v 0.3 4.9 1.49012e-008
v 0.3 4.9 -0.1
v 0.3 5.3 0.2
v 0.3 5.3 -0.1
v 0.3 5.5 0.2
v 0.3 5.5 -0.1
v 0.3 6.6 0.2
v 0.3 6.6 -0.1
v 0.4 0 0.3
v 0.4 0 1.49012e-008
v 0.4 0 -0.1
v 0.4 0.1 0.3
v 0.4 0.1 0.2
v 0.4 0.1 1.49012e-008
v 0.4 0.1 -0.1
v 0.4 0.2 0.2
v 0.4 0.2 1.49012e-008
v 0.1 0 0.5
v 0.1 0.1 0.5
v 0.2 0 0.5
v 0.2 0.1 0.5
v -1.49012e-008 0 0.4
v -1.49012e-008 0.1 0.4
v 0.1 0 0.4
v 0.1 0.1 0.4
v 0.2 0 0.4
v 0.2 0.1 0.4
v 0.3 0 0.4
v 0.3 0.1 0.4
v -0.1 0 0.3
v -0.1 0.1 0.3
v -1.49012e-008 0 0.3
v -1.49012e-008 0.1 0.3
v 0.1 0.1 0.3
v 0.1 0.2 0.3
v 0.2 0.1 0.3
v 0.2 0.2 0.3
v 0.3 0 0.3
v 0.3 0.1 0.3
v 0.4 0 0.3
v 0.4 0.1 0.3
v -0.1 0.1 0.2
v -0.1 0.2 0.2
v -1.49012e-008 0.2 0.2
v -1.49012e-008 0.3 0.2
v -1.49012e-008 0.9 0.2
v -1.49012e-008 1 0.2
v -1.49012e-008 1.5 0.2
v -1.49012e-008 1.6 0.2
v -1.49012e-008 1.7 0.2
v -1.49012e-008 3 0.2
v -1.49012e-008 3.6 0.2
v -1.49012e-008 4.2 0.2
v -1.49012e-008 4.3 0.2
v -1.49012e-008 6.6 0.2
v 0.1 0.1 0.2
v 0.1 0.2 0.2
v 0.1 0.9 0.2
v 0.1 1 0.2
v 0.1 1.5 0.2
v 0.1 1.6 0.2
v 0.1 1.7 0.2
v 0.1 2.1 0.2
v 0.1 2.2 0.2
v 0.1 4.2 0.2
v 0.1 4.3 0.2
v 0.1 5.4 0.2
v 0.1 5.5 0.2
v 0.2 0.1 0.2
v 0.2 0.2 0.2
v 0.2 2.1 0.2
v 0.2 2.2 0.2
v 0.2 3.3 0.2
v 0.2 3.5 0.2
v 0.2 5.3 0.2
v 0.2 5.4 0.2
v 0.3 0.2 0.2
v 0.3 0.3 0.2
v 0.3 1 0.2
v 0.3 3 0.2
v 0.3 3.3 0.2
v 0.3 3.5 0.2
v 0.3 3.6 0.2
v 0.3 5.3 0.2
v 0.3 5.5 0.2
v 0.3 6.6 0.2
v 0.4 0.1 0.2
v 0.4 0.2 0.2
v -1.49012e-008 1.5 0.1
v -1.49012e-008 1.6 0.1
v 0.1 1.5 0.1
v 0.1 1.6 0.1
v 0.1 2.1 0.1
v 0.1 2.2 0.1
v 0.2 2.1 0.1
v 0.2 2.2 0.1
v -0.1 0.1 1.49012e-008
v -0.1 0.2 1.49012e-008
v -1.49012e-008 0.1 1.49012e-008
v -1.49012e-008 0.2 1.49012e-008
v -0.1 0.1 0.1
v -0.1 0.2 0.1
v -1.49012e-008 0.1 0.1
v -1.49012e-008 0.2 0.1
v 0.3 0.1 1.49012e-008
v 0.3 0.2 1.49012e-008
v 0.4 0.1 1.49012e-008
v 0.4 0.2 1.49012e-008
v -0.1 0 -0.1
v -0.1 0.2 -0.1
v -1.49012e-008 0 -0.1
v -1.49012e-008 0.1 -0.1
v -1.49012e-008 0.2 -0.1
v -1.49012e-008 0.3 -0.1
v -1.49012e-008 1 -0.1
v -1.49012e-008 6.6 -0.1
v 0.1 0.1 -0.1
v 0.1 0.2 -0.1
v 0.1 5.4 -0.1
v 0.1 5.5 -0.1
v 0.2 0.1 -0.1
v 0.2 0.2 -0.1
v 0.2 0.3 -0.1
v 0.2 1 -0.1
v 0.2 1.7 -0.1
v 0.2 4.8 -0.1
v 0.2 4.9 -0.1
v 0.2 5.3 -0.1
v 0.2 5.4 -0.1
v 0.3 0 -0.1
v 0.3 0.1 -0.1
v 0.3 1.7 -0.1
v 0.3 4.8 -0.1
v 0.3 4.9 -0.1
v 0.3 5.3 -0.1
v 0.3 5.5 -0.1
v 0.3 6.6 -0.1
v 0.4 0 -0.1
v 0.4 0.1 -0.1
v -1.49012e-008 0 -0.2
v -1.49012e-008 0.1 -0.2
v 0.1 0 -0.2
v 0.1 0.1 -0.2
v 0.1 0.2 -0.2
v 0.2 0 -0.2
v 0.2 0.1 -0.2
v 0.2 0.2 -0.2
v 0.3 0 -0.2
v 0.3 0.1 -0.2
v 0.1 0 -0.3
v 0.1 0.1 -0.3
v 0.2 0 -0.3
v 0.2 0.1 -0.3
v 0.1 0 0.5
v 0.2 0 0.5
v -1.49012e-008 0 0.4
v 0.1 0 0.4
v 0.2 0 0.4
v 0.3 0 0.4
v -0.1 0 0.3
v -1.49012e-008 0 0.3
v 0.3 0 0.3
v 0.4 0 0.3
v -0.1 0 0.1
v 0.1 0 0.1
v 0.2 0 1.49012e-008
v 0.4 0 1.49012e-008
v -0.1 0 -0.1
v -1.49012e-008 0 -0.1
v 0.2 0 -0.1
v 0.3 0 -0.1
v 0.4 0 -0.1
v -1.49012e-008 0 -0.2
v 0.1 0 -0.2
v 0.2 0 -0.2
v 0.3 0 -0.2
v 0.1 0 -0.3
v 0.2 0 -0.3
v -1.49012e-008 1.6 0.2
v 0.1 1.6 0.2
v -1.49012e-008 1.6 0.1
v 0.1 1.6 0.1
v 0.1 2.2 0.2
v 0.2 2.2 0.2
v 0.1 2.2 0.1
v 0.2 2.2 0.1
v 0.1 5.5 0.2
v 0.3 5.5 0.2
v 0.1 5.5 -0.1
v 0.3 5.5 -0.1
v 0.1 0.1 0.5
v 0.2 0.1 0.5
v -1.49012e-008 0.1 0.4
v 0.1 0.1 0.4
v 0.2 0.1 0.4
v 0.3 0.1 0.4
v -0.1 0.1 0.3
v -1.49012e-008 0.1 0.3
v 0.1 0.1 0.3
v 0.2 0.1 0.3
v 0.3 0.1 0.3
v 0.4 0.1 0.3
v -0.1 0.1 0.2
v 0.1 0.1 0.2
v 0.2 0.1 0.2
v 0.4 0.1 0.2
v -0.1 0.1 0.1
v -1.49012e-008 0.1 0.1
v -0.1 0.1 1.49012e-008
v -1.49012e-008 0.1 1.49012e-008
v 0.3 0.1 1.49012e-008
v 0.4 0.1 1.49012e-008
v -1.49012e-008 0.1 -0.1
v 0.1 0.1 -0.1
v 0.2 0.1 -0.1
v 0.3 0.1 -0.1
v 0.4 0.1 -0.1
v -1.49012e-008 0.1 -0.2
v 0.1 0.1 -0.2
v 0.2 0.1 -0.2
v 0.3 0.1 -0.2
v 0.1 0.1 -0.3
v 0.2 0.1 -0.3
v 0.1 0.2 0.3
v 0.2 0.2 0.3
v -0.1 0.2 0.2
v -1.49012e-008 0.2 0.2
v 0.1 0.2 0.2
v 0.2 0.2 0.2
v 0.3 0.2 0.2
v 0.4 0.2 0.2
v -0.1 0.2 0.1
v -1.49012e-008 0.2 0.1
v -0.1 0.2 1.49012e-008
v -1.49012e-008 0.2 1.49012e-008
v 0.3 0.2 1.49012e-008
v 0.4 0.2 1.49012e-008
v -0.1 0.2 -0.1
v -1.49012e-008 0.2 -0.1
v 0.1 0.2 -0.1
v 0.2 0.2 -0.1
v 0.1 0.2 -0.2
v 0.2 0.2 -0.2
v -1.49012e-008 1.5 0.2
v 0.1 1.5 0.2
v -1.49012e-008 1.5 0.1
v 0.1 1.5 0.1
v 0.1 2.1 0.2
v 0.2 2.1 0.2
v 0.1 2.1 0.1
v 0.2 2.1 0.1
v 0.2 5.3 0.2
v 0.3 5.3 0.2
v 0.2 5.3 -0.1
v 0.3 5.3 -0.1
v 0.1 5.4 0.2
v 0.2 5.4 0.2
v 0.1 5.4 -0.1
v 0.2 5.4 -0.1
v -1.49012e-008 6.6 0.2
v 0.3 6.6 0.2
v -1.49012e-008 6.6 -0.1
v 0.3 6.6 -0.1

# faces
f 4/1/1 2/1/1 1/1/1
f 5/1/1 2/1/1 4/1/1
f 6/5/1 3/5/1 2/5/1
f 6/1/1 2/1/1 5/1/1
f 7/5/1 3/5/1 6/5/1
f 8/1/1 6/1/1 5/1/1
f 9/1/1 6/1/1 8/1/1
f 10/5/1 3/5/1 7/5/1
f 11/5/1 3/5/1 10/5/1
f 16/1/1 13/1/1 12/1/1
f 17/1/1 13/1/1 16/1/1
f 20/5/1 15/5/1 14/5/1
f 21/5/1 15/5/1 20/5/1
f 23/5/1 19/5/1 18/5/1
f 24/5/1 19/5/1 23/5/1
f 26/3/1 23/3/1 22/3/1
f 26/3/1 25/3/1 24/3/1
f 26/3/1 24/3/1 23/3/1
f 27/3/1 25/3/1 26/3/1
f 28/2/1 27/2/1 26/2/1
f 29/2/1 27/2/1 28/2/1
f 30/1/1 29/1/1 28/1/1
f 31/2/1 27/2/1 29/2/1
f 31/1/1 29/1/1 30/1/1
f 32/2/1 27/2/1 31/2/1
f 33/6/1 31/6/1 30/6/1
f 33/6/1 32/6/1 31/6/1
f 34/6/1 32/6/1 33/6/1
f 35/6/1 32/6/1 34/6/1
f 37/1/1 35/1/1 34/1/1
f 38/1/1 37/1/1 36/1/1
f 39/6/1 32/6/1 35/6/1
f 39/1/1 37/1/1 38/1/1
f 39/1/1 35/1/1 37/1/1
f 40/6/1 39/6/1 38/6/1
f 41/6/1 32/6/1 39/6/1
f 41/6/1 39/6/1 40/6/1
f 42/4/1 41/4/1 40/4/1
f 43/6/1 32/6/1 41/6/1
f 43/4/1 41/4/1 42/4/1
f 44/6/1 43/6/1 42/6/1
f 45/6/1 43/6/1 44/6/1
f 46/1/1 45/1/1 44/1/1
f 47/6/1 43/6/1 45/6/1
f 47/1/1 45/1/1 46/1/1
f 48/6/1 47/6/1 46/6/1
f 49/6/1 32/6/1 43/6/1
f 49/6/1 47/6/1 48/6/1
f 49/6/1 43/6/1 47/6/1
f 54/5/1 51/5/1 50/5/1
f 55/5/1 51/5/1 54/5/1
f 59/5/1 53/5/1 52/5/1
f 60/5/1 53/5/1 59/5/1
f 61/5/1 57/5/1 56/5/1
f 62/5/1 57/5/1 61/5/1
f 63/5/1 59/5/1 58/5/1
f 64/5/1 59/5/1 63/5/1
f 67/6/1 66/6/1 65/6/1
f 68/6/1 66/6/1 67/6/1
f 71/6/1 70/6/1 69/6/1
f 72/6/1 70/6/1 71/6/1
f 73/6/2 74/6/2 75/6/2
f 75/6/2 74/6/2 76/6/2
f 77/6/2 78/6/2 79/6/2
f 79/6/2 78/6/2 80/6/2
f 81/5/2 82/5/2 85/5/2
f 85/5/2 82/5/2 86/5/2
f 83/5/2 84/5/2 90/5/2
f 90/5/2 84/5/2 91/5/2
f 87/5/2 88/5/2 92/5/2
f 92/5/2 88/5/2 93/5/2
f 89/5/2 90/5/2 94/5/2
f 94/5/2 90/5/2 95/5/2
f 96/6/2 97/6/2 98/6/2
f 98/6/2 97/6/2 99/6/2
f 100/5/2 101/5/2 104/5/2
f 104/5/2 101/5/2 105/5/2
f 102/5/2 103/5/2 107/5/2
f 107/5/2 103/5/2 108/5/2
f 106/1/2 107/1/2 110/1/2
f 109/3/2 110/3/2 111/3/2
f 110/1/2 107/1/2 112/1/2
f 111/3/2 110/3/2 112/3/2
f 111/2/2 112/2/2 113/2/2
f 112/1/2 107/1/2 114/1/2
f 113/2/2 112/2/2 114/2/2
f 113/6/2 114/6/2 115/6/2
f 114/1/2 107/1/2 115/1/2
f 115/1/2 107/1/2 116/1/2
f 113/6/2 115/6/2 117/6/2
f 115/6/2 116/6/2 117/6/2
f 117/6/2 116/6/2 118/6/2
f 117/4/2 118/4/2 119/4/2
f 119/4/2 118/4/2 120/4/2
f 119/1/2 120/1/2 121/1/2
f 120/4/2 118/4/2 122/4/2
f 121/1/2 120/1/2 122/1/2
f 121/4/2 122/4/2 123/4/2
f 118/6/2 116/6/2 124/6/2
f 123/4/2 122/4/2 124/4/2
f 122/4/2 118/4/2 124/4/2
f 123/6/2 124/6/2 125/6/2
f 124/6/2 116/6/2 125/6/2
f 125/6/2 116/6/2 126/6/2
f 123/6/2 125/6/2 127/6/2
f 125/1/2 126/1/2 127/1/2
f 127/1/2 126/1/2 128/1/2
f 123/6/2 127/6/2 129/6/2
f 127/6/2 128/6/2 129/6/2
f 129/6/2 128/6/2 130/6/2
f 131/6/2 132/6/2 133/6/2
f 133/6/2 132/6/2 134/6/2
f 135/5/2 136/5/2 138/5/2
f 138/5/2 136/5/2 139/5/2
f 136/1/2 137/1/2 140/1/2
f 139/5/2 136/5/2 140/5/2
f 140/1/2 137/1/2 141/1/2
f 139/5/2 140/5/2 142/5/2
f 142/5/2 140/5/2 143/5/2
f 146/5/3 145/5/3 144/5/3
f 147/5/3 145/5/3 146/5/3
f 150/1/3 149/1/3 148/1/3
f 151/1/3 149/1/3 150/1/3
f 154/5/3 153/5/3 152/5/3
f 155/5/3 153/5/3 154/5/3
f 158/1/3 157/1/3 156/1/3
f 159/1/3 157/1/3 158/1/3
f 162/5/3 161/5/3 160/5/3
f 163/5/3 161/5/3 162/5/3
f 166/5/3 165/5/3 164/5/3
f 167/5/3 165/5/3 166/5/3
f 170/1/3 169/1/3 168/1/3
f 182/1/3 170/1/3 168/1/3
f 183/3/3 171/3/3 170/3/3
f 183/1/3 170/1/3 182/1/3
f 184/2/3 172/2/3 171/2/3
f 184/1/3 173/1/3 172/1/3
f 185/6/3 174/6/3 173/6/3
f 185/1/3 173/1/3 184/1/3
f 186/6/3 174/6/3 185/6/3
f 187/1/3 176/1/3 175/1/3
f 188/6/3 177/6/3 176/6/3
f 188/1/3 176/1/3 187/1/3
f 189/6/3 177/6/3 188/6/3
f 190/6/3 177/6/3 189/6/3
f 191/6/3 179/6/3 178/6/3
f 191/1/3 180/1/3 179/1/3
f 192/6/3 181/6/3 180/6/3
f 192/1/3 180/1/3 191/1/3
f 193/6/3 181/6/3 192/6/3
f 194/6/3 181/6/3 193/6/3
f 196/3/3 171/3/3 183/3/3
f 197/6/3 186/6/3 185/6/3
f 197/6/3 187/6/3 186/6/3
f 197/6/3 188/6/3 187/6/3
f 197/6/3 189/6/3 188/6/3
f 198/6/3 177/6/3 190/6/3
f 199/4/3 178/4/3 177/4/3
f 200/4/3 178/4/3 199/4/3
f 201/6/3 192/6/3 191/6/3
f 201/6/3 193/6/3 192/6/3
f 202/6/3 193/6/3 201/6/3
f 203/5/3 196/5/3 195/5/3
f 203/3/3 171/3/3 196/3/3
f 204/2/3 184/2/3 171/2/3
f 204/3/3 171/3/3 203/3/3
f 204/2/3 185/2/3 184/2/3
f 205/6/3 198/6/3 197/6/3
f 205/2/3 185/2/3 204/2/3
f 205/6/3 197/6/3 185/6/3
f 206/6/3 177/6/3 198/6/3
f 206/6/3 198/6/3 205/6/3
f 206/4/3 199/4/3 177/4/3
f 207/1/3 200/1/3 199/1/3
f 207/4/3 199/4/3 206/4/3
f 208/4/3 178/4/3 200/4/3
f 208/1/3 200/1/3 207/1/3
f 209/6/3 191/6/3 178/6/3
f 209/4/3 178/4/3 208/4/3
f 209/6/3 201/6/3 191/6/3
f 210/6/3 201/6/3 209/6/3
f 211/6/3 181/6/3 194/6/3
f 212/6/3 181/6/3 211/6/3
f 213/5/3 203/5/3 195/5/3
f 214/5/3 203/5/3 213/5/3
f 217/1/3 216/1/3 215/1/3
f 218/1/3 216/1/3 217/1/3
f 221/6/3 220/6/3 219/6/3
f 222/6/3 220/6/3 221/6/3
f 225/5/3 224/5/3 223/5/3
f 226/5/3 224/5/3 225/5/3
f 227/1/4 228/1/4 229/1/4
f 229/1/4 228/1/4 230/1/4
f 231/5/4 232/5/4 233/5/4
f 233/5/4 232/5/4 234/5/4
f 235/5/4 236/5/4 237/5/4
f 237/5/4 236/5/4 238/5/4
f 238/5/4 236/5/4 239/5/4
f 238/5/4 239/5/4 243/5/4
f 239/3/4 240/3/4 244/3/4
f 243/5/4 239/5/4 244/5/4
f 241/6/4 242/6/4 245/6/4
f 245/6/4 242/6/4 246/6/4
f 244/3/4 240/3/4 248/3/4
f 240/2/4 241/2/4 249/2/4
f 248/3/4 240/3/4 249/3/4
f 241/6/4 245/6/4 250/6/4
f 249/2/4 241/2/4 250/2/4
f 250/6/4 245/6/4 251/6/4
f 251/6/4 245/6/4 252/6/4
f 252/6/4 245/6/4 253/6/4
f 253/6/4 245/6/4 254/6/4
f 254/6/4 245/6/4 255/6/4
f 248/1/4 249/1/4 257/1/4
f 247/1/4 248/1/4 257/1/4
f 249/1/4 250/1/4 257/1/4
f 250/1/4 251/1/4 257/1/4
f 251/6/4 252/6/4 258/6/4
f 257/1/4 251/1/4 258/1/4
f 252/1/4 253/1/4 259/1/4
f 258/6/4 252/6/4 259/6/4
f 253/6/4 254/6/4 260/6/4
f 259/1/4 253/1/4 260/1/4
f 260/6/4 254/6/4 261/6/4
f 246/6/4 242/6/4 262/6/4
f 262/6/4 242/6/4 263/6/4
f 256/1/4 257/1/4 264/1/4
f 264/1/4 257/1/4 265/1/4
f 266/5/4 267/5/4 268/5/4
f 268/5/4 267/5/4 269/5/4
f 269/5/4 270/5/4 272/5/4
f 272/5/4 270/5/4 273/5/4
f 271/5/4 272/5/4 274/5/4
f 274/5/4 272/5/4 275/5/4
f 276/5/4 277/5/4 278/5/4
f 278/5/4 277/5/4 279/5/4
f 283/5/5 281/5/5 280/5/5
f 284/5/5 281/5/5 283/5/5
f 287/1/5 283/1/5 282/1/5
f 288/5/5 285/5/5 284/5/5
f 288/5/5 284/5/5 283/5/5
f 290/1/5 287/1/5 286/1/5
f 291/5/5 289/5/5 288/5/5
f 291/1/5 287/1/5 290/1/5
f 291/1/5 283/1/5 287/1/5
f 291/5/5 288/5/5 283/5/5
f 292/5/5 291/5/5 290/5/5
f 292/5/5 289/5/5 291/5/5
f 293/5/5 289/5/5 292/5/5
f 294/5/5 292/5/5 290/5/5
f 295/5/5 292/5/5 294/5/5
f 296/1/5 293/1/5 292/1/5
f 296/5/5 292/5/5 295/5/5
f 297/1/5 293/1/5 296/1/5
f 298/1/5 293/1/5 297/1/5
f 299/5/5 296/5/5 295/5/5
f 299/5/5 297/5/5 296/5/5
f 300/5/5 297/5/5 299/5/5
f 301/5/5 297/5/5 300/5/5
f 302/5/5 297/5/5 301/5/5
f 303/5/5 301/5/5 300/5/5
f 304/5/5 301/5/5 303/5/5
f 307/1/5 306/1/5 305/1/5
f 308/1/5 306/1/5 307/1/5
f 311/6/5 310/6/5 309/6/5
f 312/6/5 310/6/5 311/6/5
f 315/6/5 314/6/5 313/6/5
f 316/6/5 314/6/5 315/6/5
f 317/5/6 318/5/6 320/5/6
f 320/5/6 318/5/6 321/5/6
f 319/1/6 320/1/6 324/1/6
f 321/5/6 322/5/6 325/5/6
f 320/5/6 321/5/6 325/5/6
f 324/1/6 320/1/6 325/1/6
f 325/5/6 322/5/6 326/5/6
f 326/5/6 322/5/6 327/5/6
f 323/1/6 324/1/6 329/1/6
f 324/1/6 325/1/6 329/1/6
f 329/1/6 325/1/6 330/1/6
f 327/5/6 328/5/6 331/5/6
f 326/5/6 327/5/6 331/5/6
f 331/5/6 328/5/6 332/5/6
f 333/5/6 334/5/6 335/5/6
f 335/5/6 334/5/6 336/5/6
f 337/1/6 338/1/6 342/1/6
f 342/1/6 338/1/6 343/1/6
f 339/5/6 340/5/6 344/5/6
f 344/5/6 340/5/6 345/5/6
f 341/5/6 342/5/6 346/5/6
f 346/5/6 342/5/6 347/5/6
f 345/5/6 346/5/6 348/5/6
f 348/5/6 346/5/6 349/5/6
f 350/5/6 351/5/6 354/5/6
f 354/5/6 351/5/6 355/5/6
f 352/1/6 353/1/6 358/1/6
f 358/1/6 353/1/6 359/1/6
f 356/5/6 357/5/6 362/5/6
f 362/5/6 357/5/6 363/5/6
f 360/5/6 361/5/6 364/5/6
f 364/5/6 361/5/6 365/5/6
f 366/5/6 367/5/6 368/5/6
f 368/5/6 367/5/6 369/5/6
f 370/6/6 371/6/6 372/6/6
f 372/6/6 371/6/6 373/6/6
f 374/6/6 375/6/6 376/6/6
f 376/6/6 375/6/6 377/6/6
f 378/6/6 379/6/6 380/6/6
f 380/6/6 379/6/6 381/6/6
f 382/6/6 383/6/6 384/6/6
f 384/6/6 383/6/6 385/6/6
f 386/6/6 387/6/6 388/6/6
f 388/6/6 387/6/6 389/6/6
